<svg width="24" height="24" viewBox="0 0 24 24" fill="none" xmlns="http://www.w3.org/2000/svg"><g clip-path="url(#clip0_143_309)" fill="#090042"><path d="M14.006 14.705a3.605 3.605 0 01-4.012 0L.16 8.148A3.57 3.57 0 010 8.035v10.743c0 1.232 1 2.21 2.21 2.21h19.58c1.232 0 2.21-1 2.21-2.21V8.035a3.06 3.06 0 01-.16.113l-9.834 6.557z"/><path d="M.94 6.978l9.834 6.556a2.206 2.206 0 002.452 0l9.834-6.556c.589-.392.94-1.048.94-1.757a2.21 2.21 0 00-2.209-2.208H2.21c-1.22 0-2.21.99-2.21 2.21 0 .707.351 1.363.94 1.755z"/></g><defs><clipPath id="clip0_143_309"><path fill="#fff" d="M0 0h24v24H0z"/></clipPath></defs></svg>