<svg width="24" height="24" viewBox="0 0 24 24" fill="none" xmlns="http://www.w3.org/2000/svg">
<path fill-rule="evenodd" clip-rule="evenodd" d="M0 12C0 5.373 5.373 0 12 0C18.627 0 24 5.37152 24 12C24 18.627 18.627 24 12 24C5.373 24 0 18.627 0 12ZM13.1357 11.9985L15.1022 11.997L15.3647 9.51605H13.1327L13.1357 8.27404C13.1357 7.62755 13.1807 7.28107 14.1092 7.28107H15.3512V4.79858H13.3652C10.9817 4.79858 10.4327 6.03008 10.4327 8.05506L10.4357 9.51605L8.63574 9.51753V11.9985H10.4357V19.1984H13.1342L13.1357 11.9985Z" fill="black"/>
</svg>
