<svg width="24" height="24" viewBox="0 0 24 24" fill="none" xmlns="http://www.w3.org/2000/svg">
<g clip-path="url(#clip0_13_630)">
<path d="M11.9998 7.78223C10.8806 7.78223 9.8072 8.22683 9.01579 9.01824C8.22439 9.80964 7.77979 10.883 7.77979 12.0022C7.77979 13.1214 8.22439 14.1948 9.01579 14.9862C9.8072 15.7776 10.8806 16.2222 11.9998 16.2222C13.1191 16.2206 14.1922 15.7753 14.9838 14.9839C15.7754 14.1925 16.2209 13.1196 16.2228 12.0002C16.2209 10.8812 15.7753 9.8087 14.9835 9.01793C14.1918 8.22716 13.1188 7.78275 11.9998 7.78223Z" fill="black"/>
<path d="M18.366 0.5H5.634C4.27303 0.502116 2.9684 1.0437 2.00605 2.00605C1.0437 2.9684 0.502116 4.27303 0.5 5.634V18.366C0.501324 19.7272 1.04265 21.0323 2.00518 21.9948C2.9677 22.9573 4.27278 23.4987 5.634 23.5H18.366C21.2 23.5 23.5 21.2 23.5 18.366V5.634C23.5 2.804 21.2 0.5 18.366 0.5ZM12 19.452C7.892 19.452 4.548 16.108 4.548 12C4.548 7.892 7.892 4.553 12 4.553C16.108 4.553 19.452 7.893 19.452 12C19.452 16.108 16.108 19.452 12 19.452ZM19.608 5.905C19.3978 5.9103 19.1886 5.87346 18.9928 5.79667C18.797 5.71987 18.6186 5.60467 18.468 5.45785C18.3175 5.31102 18.1978 5.13555 18.1161 4.94177C18.0344 4.74798 17.9923 4.5398 17.9923 4.3295C17.9923 4.1192 18.0344 3.91102 18.1161 3.71723C18.1978 3.52345 18.3175 3.34798 18.468 3.20115C18.6186 3.05433 18.797 2.93913 18.9928 2.86233C19.1886 2.78554 19.3978 2.7487 19.608 2.754C19.8182 2.7487 20.0274 2.78554 20.2232 2.86233C20.419 2.93913 20.5974 3.05433 20.748 3.20115C20.8985 3.34798 21.0182 3.52345 21.0999 3.71723C21.1816 3.91102 21.2237 4.1192 21.2237 4.3295C21.2237 4.5398 21.1816 4.74798 21.0999 4.94177C21.0182 5.13555 20.8985 5.31102 20.748 5.45785C20.5974 5.60467 20.419 5.71987 20.2232 5.79667C20.0274 5.87346 19.8182 5.9103 19.608 5.905Z" fill="black"/>
</g>
<defs>
<clipPath id="clip0_13_630">
<rect width="24" height="24" fill="white"/>
</clipPath>
</defs>
</svg>
