<svg width="24" height="24" viewBox="0 0 24 24" fill="none" xmlns="http://www.w3.org/2000/svg"><path d="M12 7.782a4.22 4.22 0 000 8.44A4.229 4.229 0 0016.223 12 4.225 4.225 0 0012 7.782z" fill="#090042"/><path d="M18.366.5H5.634A5.142 5.142 0 00.5 5.634v12.732A5.139 5.139 0 005.634 23.5h12.732c2.834 0 5.134-2.3 5.134-5.134V5.634C23.5 2.804 21.2.5 18.366.5zM12 19.452c-4.108 0-7.452-3.344-7.452-7.452 0-4.108 3.344-7.447 7.452-7.447 4.108 0 7.452 3.34 7.452 7.447 0 4.108-3.344 7.452-7.452 7.452zm7.608-13.547a1.576 1.576 0 110-3.151 1.576 1.576 0 110 3.151z" fill="#090042"/></svg>