<svg width="803" height="744" viewBox="0 0 803 744" fill="none" xmlns="http://www.w3.org/2000/svg">
<path d="M101.454 181.745C137.735 151.511 184.554 134.913 238.294 124.551C285.393 115.469 337.718 111.191 392.826 106.685C400.609 106.048 408.447 105.408 416.334 104.748C542.473 94.1984 680.902 78.878 802.34 0.560059C801.99 1.13476 801.599 1.77686 801.169 2.48354C798.969 6.09182 795.725 11.4055 791.548 18.2224C783.194 31.8571 771.108 51.5065 756.18 75.5692C726.322 123.695 685.095 189.467 639.616 260.06C548.641 401.27 440.704 561.686 372.719 638.756C304.876 715.664 227.368 739.036 166.832 743.207C136.553 745.292 110.51 742.574 92.0407 739.335C82.8067 737.714 75.4687 735.965 70.4437 734.623C67.9307 733.951 65.9967 733.382 64.6937 732.98C64.0417 732.78 63.5477 732.622 63.2187 732.514C63.2117 732.511 63.2057 732.509 63.1987 732.507C32.5777 634.744 2.69966 529.99 0.172662 433.208C-2.35834 336.3 22.5347 247.511 101.454 181.745Z" stroke="#F2CDCE"/>
</svg>
