<svg width="803" height="795" viewBox="0 0 803 795" fill="none" xmlns="http://www.w3.org/2000/svg">
<path d="M101.454 193.574C137.735 161.272 184.554 143.54 238.294 132.469C285.393 122.766 337.718 118.195 392.826 113.381C400.609 112.701 408.447 112.017 416.334 111.312C542.473 100.041 680.902 83.673 802.34 0C801.99 0.614 801.599 1.3 801.169 2.055C798.969 5.91 795.725 11.587 791.548 18.87C783.194 33.437 771.108 54.43 756.18 80.138C726.322 131.554 685.095 201.824 639.616 277.243C548.641 428.109 440.704 599.494 372.719 681.833C304.876 764 227.368 788.97 166.832 793.426C136.553 795.654 110.51 792.75 92.0407 789.289C82.8067 787.558 75.4687 785.689 70.4437 784.255C67.9307 783.537 65.9967 782.929 64.6937 782.5C64.0417 782.286 63.5477 782.117 63.2187 782.002C63.2117 781.999 63.2057 781.997 63.1987 781.995C32.5777 677.547 2.69966 565.63 0.172662 462.231C-2.35834 358.697 22.5347 263.837 101.454 193.574Z" stroke="#6B8CBE"/>
</svg>
